<svg width="1589" height="120" viewBox="0 0 1589 120" fill="none" xmlns="http://www.w3.org/2000/svg">
<g clip-path="url(#clip0_11_2)">
<path d="M124.535 60.0102C124.535 93.1059 109.61 120.02 62.2777 120.02C14.9244 120 0 93.1059 0 60.0102C0 26.8941 14.9244 0 62.2571 0C109.61 0 124.514 26.8941 124.514 60.0102H124.535Z" fill="#F3A2A2"/>
<path fill-rule="evenodd" clip-rule="evenodd" d="M78.0071 19.5463C77.9452 19.751 77.78 20.0785 77.553 20.5083C77.4085 20.8562 77.2433 20.9585 77.0369 20.8153C76.8924 20.7539 76.6654 20.6106 76.3764 20.4059C75.1998 19.8942 74.2709 19.3416 73.5484 18.7276C74.1676 18.0112 74.8282 17.7247 75.5507 17.868C75.7984 17.9089 76.4176 18.1545 77.4085 18.6253C77.8832 18.789 78.0897 19.096 78.0277 19.5463H78.0071ZM78.3787 23.2304C80.1333 23.1895 80.7319 24.0696 80.1745 25.8298C80.1126 26.0958 79.803 26.3005 79.3076 26.4438C79.2043 26.5052 79.0805 26.4438 78.936 26.2391C78.7915 26.0344 78.7709 25.8502 78.8328 25.6865C78.8947 25.3795 78.8328 24.9497 78.6883 24.4175C78.4819 23.8649 78.3787 23.476 78.3787 23.2304ZM59.8832 15.4119C60.358 14.5932 61.0804 14.1429 62.0506 14.0406C63.2479 13.9382 64.0323 14.4909 64.4245 15.7189C64.5277 16.292 64.3832 16.6604 64.0117 16.7832C63.7639 16.8446 63.4337 16.9265 62.9795 16.9879C62.7318 17.1516 62.1951 17.3563 61.3282 17.6019C60.6676 17.8066 60.1515 18.0727 59.78 18.4206C59.4704 17.254 59.5116 16.2511 59.8832 15.4119ZM56.952 18.6662C57.6126 18.8095 58.0667 18.8913 58.335 18.9118C56.0437 22.0433 54.991 24.9292 55.1974 27.59C55.4451 30.0665 56.7662 32.6659 59.1607 35.3471C59.0162 35.4085 58.7685 35.4904 58.397 35.5518C58.0254 35.5927 57.7983 35.7155 57.7364 35.9611C57.3855 34.9787 57.0758 34.2828 56.7456 33.8734C56.374 33.0547 55.6928 32.6454 54.6813 32.6454C54.7846 32.2361 54.7226 31.6834 54.4749 30.9671C54.3098 30.2507 54.2272 29.739 54.2685 29.432C54.2685 28.9613 54.0827 28.5724 53.7112 28.2654C52.4313 27.242 52.5346 26.3005 53.9589 25.4C54.6194 24.9906 54.9291 24.4994 54.9291 23.9263C54.9703 23.3123 54.6813 22.8006 54.1034 22.3913C53.2777 21.8386 52.9887 21.2656 53.2364 20.6515C53.8557 19.3212 54.6607 18.6048 55.6515 18.5025C55.9818 18.4001 56.4153 18.4411 56.9314 18.6457L56.952 18.6662ZM61.741 18.8913C63.5369 18.3183 64.7961 18.0112 65.5598 17.9703C66.9016 17.9703 68.0782 18.5025 69.1103 19.5463C69.1929 19.6486 69.3374 19.6896 69.5851 19.6486C69.7502 19.6077 69.8328 19.5668 69.7915 19.5054C69.6263 18.6253 69.7502 18.3387 70.163 18.6867C70.7823 19.0551 71.0919 19.137 71.0919 18.8913C73.1768 19.6486 74.8076 20.7743 75.9429 22.3094C77.0782 23.9058 77.6355 25.7888 77.6355 27.9174C77.9452 30.1893 76.8305 32.0928 74.2915 33.5869C71.2777 35.388 68.7594 36.3091 66.7777 36.35C64.5071 36.4523 62.1126 35.4699 59.5736 33.3822C58.3763 32.3589 57.53 31.0694 57.0552 29.4934C56.6217 27.9993 56.5598 26.4233 56.9107 24.7859C57.5919 21.6749 59.2226 19.71 61.8029 18.8504L61.741 18.8913ZM71.7938 17.6019C71.319 17.4382 70.741 17.3154 70.0392 17.2335H68.491C67.5621 17.1926 67.0048 16.8855 66.7984 16.3125C66.6539 16.0669 66.7571 15.8417 67.0461 15.5961C67.3557 15.33 67.6034 15.1049 67.7685 14.9411C68.6355 14.1225 69.4406 13.8564 70.2456 14.1225C71.03 14.2657 71.4429 14.9616 71.4842 16.2101C71.4842 16.8855 71.5874 17.3563 71.7938 17.5814V17.6019ZM53.8557 34.467C54.3098 33.6892 54.7433 33.3822 55.1974 33.546C55.4658 33.7097 55.796 34.0986 56.1882 34.7126C56.5598 35.5313 57.0552 35.9816 57.6745 36.043C57.6745 36.2477 57.6745 36.5342 57.6332 36.9026C57.6332 37.2506 57.7364 37.4962 57.9428 37.6599C58.2525 37.8032 58.4795 37.7213 58.6034 37.4552C58.8098 37.1073 58.913 36.9231 58.913 36.9026C59.5736 36.5342 60.0896 36.6365 60.5025 37.2096C60.5437 37.271 61.0598 37.8646 62.0919 38.9903C62.2571 38.54 62.1951 38.1306 61.8855 37.7213C61.5346 37.0663 61.3488 36.6775 61.3282 36.5547C63.8052 37.7418 66.3029 38.0283 68.8419 37.4143C70.803 37.0049 73.0736 35.9611 75.6332 34.3033C76.0667 35.1629 76.0461 35.8588 75.53 36.4523C75.1585 36.7593 74.6011 37.1687 73.8787 37.6804C72.9498 38.6628 72.0002 38.7242 71.0507 37.8236C70.3901 37.2096 69.9773 37.4348 69.7708 38.4786C69.7296 38.6423 69.6883 38.9493 69.6263 39.3996C69.4818 39.768 69.2548 40.0341 68.9658 40.1569C68.7594 40.3002 68.4085 40.5253 67.9337 40.8119C67.4589 41.1598 67.0667 41.2007 66.7571 40.9551C66.3029 40.7505 66.0139 40.423 65.8901 39.9932C65.6837 39.5224 65.6837 39.0312 65.8901 38.5195C65.3121 38.8265 65.0231 39.4815 65.0231 40.4639C65.0231 41.385 64.8786 41.999 64.569 42.306C63.8878 41.5896 63.3924 41.0575 63.0827 40.73C62.4222 40.1774 61.6791 40.1364 60.8121 40.5867C60.647 40.6891 60.5437 40.6481 60.5025 40.4844C60.4612 40.1364 60.3993 39.9522 60.296 39.9318C60.1515 39.8908 60.0277 39.6862 59.8832 39.2768C59.78 38.9289 59.5116 38.847 59.0575 39.0312C58.6447 39.3382 58.5208 39.6248 58.6859 39.8908C58.7479 39.9932 58.9337 40.2183 59.202 40.5458C59.6148 42.0194 59.8213 43.2475 59.8213 44.2708C59.8213 45.6217 59.5116 46.8702 58.8924 47.9959C58.2731 48.9579 57.4061 49.797 56.2708 50.5543C55.5896 50.9637 54.4956 51.4958 53.03 52.1303C49.5621 53.911 46.0116 53.1332 42.3579 49.838C41.3052 48.8146 40.7478 47.4842 40.7065 45.8468C40.6033 44.2504 41.0162 42.7153 41.9451 41.2417C43.6584 38.3763 46.0942 36.7593 49.2524 36.3295C52.4107 35.9202 55.0736 36.964 57.241 39.4406C57.3855 39.5429 57.6125 39.7066 57.9015 39.9522C57.5919 38.7242 56.9107 37.6599 55.8992 36.7389C54.9084 35.8588 53.8144 35.2652 52.5965 34.9991H51.3167C50.8006 34.9377 50.5942 34.5693 50.6974 33.9348C50.7593 33.3208 51.0483 32.9319 51.5231 32.7682C51.6263 32.7273 52.1011 32.7068 52.968 32.6659L53.835 32.7273C53.2157 33.239 52.8855 33.5255 52.8648 33.5869C52.5552 34.0372 52.5758 34.3442 52.9061 34.5489C53.0713 34.7126 53.257 34.7945 53.4222 34.7945C53.6492 34.7126 53.7937 34.6103 53.8969 34.4261L53.8557 34.467ZM63.2892 42.5721C63.4337 43.227 63.2479 43.8206 62.7731 44.3527C62.5667 44.6188 62.1126 45.0486 61.4314 45.6217C61.3282 45.2123 61.2869 44.496 61.3282 43.4726C61.3694 42.5925 61.2043 41.8966 60.8534 41.385C60.9566 41.4464 61.452 41.5487 62.3603 41.692C62.835 41.7943 63.1447 42.0808 63.2892 42.5516V42.5721ZM61.9474 47.4842C61.9474 47.4842 61.8029 47.7298 61.6378 47.9959C61.2869 48.876 60.874 49.5514 60.3993 49.9812C59.8419 50.5339 59.0575 50.7795 58.0254 50.7385C59.1607 50.1859 60.0483 49.1011 60.7089 47.4638C60.9772 46.8907 61.3282 46.7065 61.741 46.9111C62.0919 47.1158 62.1538 47.3 61.9474 47.4638V47.4842ZM71.6286 40.8937C71.8764 41.2417 71.9589 41.5896 71.8763 41.958C71.8763 42.5107 71.5461 43.3498 70.8855 44.5165C70.3075 45.5398 70.0392 46.4404 70.1218 47.2181C70.3282 48.6099 70.5965 49.7561 70.8855 50.6362C71.3397 51.721 72.0621 52.6011 73.0942 53.2969C74.0231 53.7677 74.3328 54.177 74.0231 54.525C73.858 54.6887 73.4864 54.7911 72.9498 54.832H71.6699C71.3603 54.832 71.2777 54.7297 71.4222 54.525C71.5254 54.1566 71.5667 53.911 71.5667 53.8086C71.5667 53.5016 71.3603 53.2355 70.9474 52.9899C70.7823 52.9285 70.4314 52.8262 69.9153 52.6829L69.8534 52.7443C69.6057 53.1127 69.2754 53.5016 68.8213 53.911C68.264 54.4226 67.975 55.0981 67.9543 55.9577C67.8924 57.8202 67.2525 59.0278 66.0552 59.5395C66.0965 59.6009 66.1172 59.6828 66.1584 59.7851C66.4268 60.133 66.7158 60.2558 67.0254 60.1944C67.1906 60.1535 67.7685 60.0512 68.7181 59.8874C69.4406 59.826 69.9979 59.6009 70.4107 59.2325C70.5759 58.9664 70.9062 58.6594 71.3809 58.3114C71.8351 58.0044 72.1653 57.7384 72.4131 57.4927C73.4658 56.367 74.9108 55.9577 76.686 56.2647C77.553 56.4284 78.0277 56.8173 78.131 57.4313C78.1929 57.7384 78.131 57.943 77.8832 58.0454C77.4704 58.25 77.2433 58.3933 77.2227 58.4547C76.4383 59.3348 75.1998 60.5833 73.5071 62.1798C72.1241 63.7148 71.2571 65.2703 70.8855 66.8873C70.6172 68.279 70.6791 69.6094 71.0919 70.8784C71.4016 71.738 72.0002 72.8228 72.8878 74.1532C73.8167 75.3403 75.0346 76.732 76.5415 78.2876C77.4291 79.1063 78.7296 80.3548 80.4635 82.0126C82.5897 84.1617 83.3947 86.4745 82.8787 88.951C82.8168 89.4013 82.7961 89.9949 82.8374 90.7931C82.8374 91.6527 82.7961 92.2668 82.7342 92.6352C82.3626 94.8866 81.2892 96.9333 79.5346 98.7549C78.7502 99.5736 76.9956 101.088 74.2709 103.299C73.3007 104.056 72.8259 103.708 72.8259 102.275C71.9589 104.22 70.5552 105.345 68.5942 105.652C67.4176 105.857 65.4772 105.898 62.7318 105.796C63.3924 105.448 63.9084 105.018 64.28 104.465C64.4864 103.851 64.6722 103.421 64.8373 103.196C63.475 103.606 62.2158 104.527 61.0805 105.959C61.1837 105.202 61.3075 104.65 61.452 104.281C61.6997 103.974 62.4428 103.094 63.7227 101.62C62.835 101.825 61.8236 102.419 60.7295 103.401C59.4497 104.67 58.5208 105.407 57.9015 105.652C58.5208 104.158 59.4291 102.746 60.6263 101.457C60.1515 101.457 59.5736 101.723 58.8717 102.275C58.2112 102.685 57.5919 102.787 57.0139 102.582C57.5713 101.661 58.5002 100.802 59.8419 99.9829C59.4291 99.7373 59.0575 99.7373 58.7066 99.9215C58.5415 100.085 58.2937 100.31 57.9841 100.577C57.8396 100.638 57.6126 100.781 57.2616 100.986C56.9933 101.15 56.663 101.231 56.2914 101.231L59.2846 97.9157C57.4061 98.8982 56.1057 99.8601 55.4245 100.781C54.7433 101.764 54.1859 102.5 53.7731 102.971C53.319 103.483 53.5254 103.544 54.3304 103.176C55.1561 102.807 55.6102 102.91 55.6722 103.483C55.7135 104.035 56.0231 104.261 56.6011 104.199L56.147 104.752C55.796 104.506 55.1768 104.363 54.2891 104.302C53.4015 104.302 52.7616 104.138 52.3901 103.79C51.8121 103.237 51.007 102.623 50.0162 101.948C48.7157 101.088 47.8488 100.536 47.4359 100.269C47.0024 100.003 46.6722 99.7783 46.507 99.6145C46.1974 99.3485 46.1355 99.0005 46.3006 98.5912C46.3625 98.2227 46.6102 97.9157 47.0231 97.6701C47.2295 97.6087 47.6011 97.445 48.1584 97.2199C48.3029 97.1789 48.468 97.1789 48.6745 97.2199C49.0254 97.2813 49.2318 97.3222 49.335 97.3222L49.1905 97.5678C48.468 98.0181 48.0552 98.2637 47.952 98.3251C47.5804 98.6321 47.5185 98.98 47.8075 99.3485C48.241 99.7578 48.5712 99.7578 48.7777 99.3485C48.9222 98.7344 49.0254 98.366 49.0873 98.2228C49.7685 97.5064 50.5529 97.0561 51.4612 96.8514C52.1217 96.7491 53.0713 96.7286 54.3511 96.79C53.9382 96.3398 53.4015 96.0941 52.7616 96.0327C52.5965 95.9918 52.1011 96.0328 51.2754 96.1351C51.007 96.1351 50.1607 96.0737 48.757 95.9918C47.8075 95.9304 46.9611 95.9918 46.2387 96.2374C45.413 96.5854 44.8763 96.5649 44.6492 96.176C44.4841 95.7667 44.546 95.2345 44.8556 94.6C44.6079 94.3544 44.3396 94.4158 44.0299 94.7433C43.679 95.0503 43.4107 95.0708 43.2043 94.8047C42.9359 94.5386 42.7708 94.3135 42.7295 94.1498C42.6676 93.8018 42.7295 93.4948 42.9772 93.1878C43.1423 92.9422 43.0391 92.7989 42.6676 92.7375C42.2134 92.6352 42.007 92.3896 42.007 92.0212C42.007 91.5095 41.8625 90.8545 41.5942 90.0358C41.3258 89.0739 41.0987 88.337 40.9336 87.7844C42.9978 88.2961 45.413 88.4394 48.1997 88.1938C51.3992 87.7435 53.7731 87.4774 55.3625 87.3751C54.5781 87.3341 53.0919 87.3137 50.9451 87.3137C49.0873 87.3137 47.6011 87.2318 46.4657 87.0681C45.8052 86.9657 44.8143 86.8429 43.4726 86.6996C42.296 86.5359 41.5942 86.1675 41.3671 85.6353C41.1194 85.1237 41.2226 84.3254 41.6148 83.2407C41.8831 82.4629 42.3786 81.767 43.0598 81.1939C43.2249 80.9278 43.8854 80.3548 45.0208 79.5156C45.2891 79.3723 45.5368 79.3519 45.7432 79.4133C46.796 79.8226 48.1584 79.8431 49.7685 79.4747C51.7914 79.0039 53.1538 78.7992 53.835 78.8606C54.1034 78.9221 54.4543 78.9016 54.8671 78.7583C55.3419 78.615 55.6722 78.5127 55.858 78.4513L55.796 78.2057H46.5689C49.8923 75.4426 51.9772 72.9047 52.8029 70.5918C53.835 67.706 53.1332 64.6768 50.6974 61.5043C51.9772 60.8289 52.9061 60.5833 53.5254 60.788C53.7937 60.8494 54.6194 61.4839 56.0025 62.671C56.5185 63.1417 56.9314 63.4078 57.241 63.4283C57.6538 63.4692 58.0254 63.1827 58.3763 62.6096C58.8304 61.6886 59.5529 61.0541 60.585 60.6652C61.8855 60.3172 62.8557 60.0716 63.475 59.9079C63.6814 59.8465 63.9084 59.9079 64.1355 60.0512L64.6103 60.6038C65.4773 61.4225 66.1791 61.9751 66.7777 62.2821C67.4383 62.5891 67.913 62.7529 68.2227 62.7938C68.8007 62.7938 69.3786 62.5891 69.9153 62.1798C70.9681 61.1973 71.7938 60.5219 72.3305 60.133C73.3626 59.3757 74.436 59.1506 75.5713 59.4167C75.0553 58.7617 74.725 58.4138 74.6011 58.3524C74.3947 58.291 74.0231 58.3524 73.4658 58.5571C72.8465 58.7617 72.186 59.1097 71.4635 59.6214C71.0507 59.9693 70.452 60.481 69.6676 61.1564C68.5736 62.0365 67.4796 61.9956 66.3649 61.0131C64.858 59.7851 63.4337 59.1915 62.0919 59.2325C60.7295 59.2939 59.3259 60.0512 57.9222 61.4839C57.8396 61.5248 57.5713 61.8523 57.0965 62.5072L56.2295 61.3406C56.085 60.9722 56.4153 60.6857 57.1997 60.481C57.4681 60.3786 57.7364 60.1535 57.9635 59.826C58.0048 59.7646 58.0254 59.7032 58.0667 59.6828C57.3442 58.6594 56.8281 57.4928 56.5185 56.1624C56.2708 55.2413 55.9818 54.3612 55.6515 53.5016C55.6102 53.3993 55.569 53.3174 55.507 53.256H55.4038C55.0323 53.4197 54.7846 53.8086 54.6813 54.4226C54.5781 54.9753 54.0827 55.3232 53.1745 55.487C52.2868 55.6916 51.6057 55.6302 51.1722 55.3437C50.6148 54.8729 50.5323 54.5454 50.9245 54.3817C51.4405 54.1156 52.968 53.5425 55.507 52.7034C55.6103 52.335 55.9199 52.1098 56.4359 52.0484C58.7685 53.7882 59.8213 55.8349 59.5736 58.1682C59.6768 58.0249 59.7593 57.8816 59.8213 57.7179C60.296 57.2676 60.7089 57.1243 61.0598 57.2676C61.2043 57.3085 61.3075 57.329 61.4314 57.329C61.2869 56.715 61.3282 56.101 61.5346 55.487C61.7823 54.9343 61.8442 54.3408 61.741 53.7063C61.3901 51.3525 61.8649 49.5514 63.124 48.2824C64.4039 49.5719 64.8993 51.3935 64.6309 53.7472C64.5277 55.1799 64.2181 56.5513 63.702 57.8816C64.0117 57.943 64.3213 58.0454 64.6309 58.1886C65.1057 55.3641 66.241 52.9695 68.0369 51.0455L67.8305 50.8409C66.9016 50.2268 66.2204 49.7561 65.7662 49.4081C64.9818 48.7532 65.2089 47.8117 66.4268 46.5427L67.3557 46.1334C67.7066 45.9901 67.7685 45.7445 67.5621 45.3761C67.4176 45.0691 67.1699 45.0281 66.7984 45.2737C66.3442 45.5194 66.0346 45.5808 65.8695 45.4784C65.8075 45.417 65.7662 45.3352 65.7662 45.2737C65.7662 45.0281 65.8075 44.8849 65.8695 44.8235C65.9314 44.6802 66.0139 44.2299 66.1172 43.4522C66.1791 42.8791 66.4268 42.4288 66.8396 42.1218C67.4589 43.4931 67.8098 44.2504 67.8718 44.4141C67.975 44.7621 68.0369 44.9667 68.0782 45.0281C68.1814 45.2328 68.3878 45.2533 68.6974 45.0895C69.0484 44.9463 69.069 44.5779 68.8007 43.9638C68.3878 43.1451 68.3878 42.4288 68.8007 41.8148C69.2135 41.2007 69.8534 40.8323 70.7617 40.6891C71.1332 40.6481 71.4429 40.7505 71.7112 40.9961L71.6286 40.8937ZM69.874 39.3996C70.3488 39.0926 71.0713 39.0107 72.0415 39.154C72.8672 39.1949 73.5071 38.9903 73.9406 38.54C73.5897 39.9727 72.991 40.5663 72.1447 40.3207C71.6906 40.116 70.9474 39.809 69.874 39.3996ZM73.8374 41.9171C75.4888 40.1364 77.4291 39.3792 79.6585 39.6248C80.6287 39.768 81.2686 40.116 81.6195 40.6891C81.9704 41.0575 82.5278 41.2212 83.3122 41.1393C84.2411 41.1393 84.9223 41.2622 85.3764 41.5078C86.4704 42.0808 87.358 43.0428 88.0599 44.3732C88.8236 46.0106 88.9888 47.648 88.5759 49.2853C88.3076 50.8818 87.4613 52.1303 86.0576 53.0104C84.0966 54.2998 81.8879 54.832 79.4108 54.5864C77.5323 54.3817 75.9016 53.7472 74.5186 52.7034C72.9085 51.5163 72.0208 49.9403 71.8351 47.9959C71.4635 45.7445 72.1241 43.7182 73.858 41.9171H73.8374ZM80.03 30.2712C80.3397 31.2946 80.1745 32.1542 79.514 32.8296C78.7502 33.5869 77.78 33.8939 76.5828 33.7916C76.686 33.4232 77.0782 32.7887 77.7594 31.9086C78.4199 31.1513 78.7709 30.4759 78.8328 29.8618C78.8741 29.6981 78.936 29.5753 79.0392 29.4934C79.1011 29.4525 79.2044 29.4525 79.3488 29.4934C79.7204 29.6367 79.9475 29.8823 80.03 30.2712ZM83.4154 39.154C83.4154 39.154 83.1677 39.3177 82.858 39.6657C82.5484 39.9727 82.3007 39.8499 82.1356 39.2973C82.4865 39.1949 82.7548 38.7037 82.9612 37.8236C83.1677 37.0663 83.6012 36.7389 84.2411 36.8003C84.7571 36.8003 85.1287 37.0049 85.3764 37.4143C85.4383 37.578 85.5209 37.8646 85.6241 38.2739C85.5209 39.154 85.3764 39.6657 85.2113 39.809C85.1493 39.8704 84.8191 39.809 84.2411 39.5634L83.4154 39.154ZM74.8282 38.9493C75.7984 37.5985 76.6447 36.8821 77.4085 36.8003C78.1929 36.6979 79.0599 37.1687 79.9888 38.233C79.7204 38.2944 78.9154 38.3353 77.5736 38.3353C76.5209 38.4786 75.592 38.6833 74.8488 38.9493H74.8282ZM89.1333 41.9171C89.6493 42.1627 89.8764 42.4902 89.7938 42.9405C89.7113 43.8001 89.6906 44.2299 89.6906 44.2708C89.2778 43.8001 88.9888 43.4522 88.8236 43.2475C88.514 42.7767 88.4727 42.306 88.7204 41.8762C88.7617 41.7124 88.803 41.651 88.8649 41.7329C88.9475 41.7943 89.0301 41.8762 89.1333 41.9376V41.9171ZM90.1654 47.2181C90.9292 48.6918 91.1562 49.7766 90.8879 50.4929C90.6402 51.2502 89.8351 51.7619 88.4108 52.028C88.4521 51.7824 88.7824 51.0865 89.4429 49.9403C89.8145 48.9579 90.0622 48.0573 90.1654 47.2386V47.2181ZM45.7226 33.6892C46.4038 33.239 47.2295 33.2185 48.1997 33.5869C48.2616 33.6483 48.4267 33.7506 48.6538 33.8939C48.9222 33.9962 49.0667 34.2009 49.0667 34.5079C49.0667 34.8149 48.8809 34.9582 48.5093 34.9173C48.241 34.8559 48.0758 34.8763 47.9933 35.0196C47.374 34.9173 46.6515 35.081 45.8258 35.4699C44.7731 36.043 44.0299 36.3909 43.6171 36.4933C44.3396 35.1219 45.0414 34.2009 45.7432 33.6892H45.7226ZM41.5942 37.619C41.9451 37.9874 41.9657 38.3149 41.6974 38.5809C41.6354 38.6833 41.429 38.8675 41.0781 39.1335L39.0139 43.575C38.9726 43.4726 38.7042 42.8177 38.1882 41.6306C37.8166 40.9142 37.8373 40.2183 38.2914 39.5429C38.8694 38.6219 39.2822 38.0692 39.5299 37.8646C39.9428 37.5576 40.2318 37.3529 40.3969 37.2506C40.8097 37.0868 41.202 37.1891 41.5735 37.5985L41.5942 37.619ZM36.0414 46.9111C36.1033 46.0924 36.351 45.6831 36.7639 45.6831C37.1974 45.6217 37.6308 45.458 38.0024 45.2328C38.1469 44.9258 38.3533 44.4755 38.6217 43.9024C38.8694 45.9696 39.0964 47.2386 39.2822 47.6889C39.6951 48.7123 40.8304 50.2678 42.6882 52.335C41.8006 52.642 41.2639 52.8057 41.0987 52.8467C40.046 53.1946 39.4061 53.1946 39.1997 52.8467C38.8281 52.6011 38.7868 51.9461 39.0964 50.8613C39.3648 49.838 39.3441 49.0807 39.0345 48.6099C38.6836 48.1392 37.9818 47.7503 36.929 47.4842C36.5574 47.4433 36.351 47.4228 36.3097 47.4228C36.1446 47.3205 36.062 47.1567 36.062 46.9111H36.0414ZM45.6813 53.87C46.4038 54.1361 47.085 54.2794 47.7455 54.2794C45.0414 55.5688 43.7203 55.139 43.7822 53.0104C44.9176 53.4811 45.5575 53.7677 45.6813 53.87ZM45.6813 57.329C45.7845 57.2881 46.1561 57.2471 46.8166 57.1857C48.6745 56.9197 50.718 57.6565 52.9474 59.4371C51.8534 60.3991 50.7387 60.7675 49.6034 60.5628C48.8809 60.3582 47.8694 59.7851 46.5689 58.8231C46.4864 58.7617 46.1767 58.7412 45.5781 58.7617C45.2066 58.7617 45.0208 58.557 45.0208 58.1477C45.0621 57.7384 45.2685 57.4723 45.6813 57.329ZM50.0988 100.495C49.8923 100.556 49.7891 100.638 49.7891 100.74C49.7478 100.904 49.8511 101.027 50.0368 101.109C50.0781 101.17 50.3671 101.211 50.9038 101.211C50.8625 100.761 51.1102 100.31 51.6263 99.8397C52.2868 99.328 52.6584 98.8163 52.7616 98.3046L50.0781 100.495H50.0988ZM80.03 55.753C80.1952 55.5893 80.9383 55.3846 82.2388 55.2004C83.2915 54.8525 84.1791 54.5045 84.8603 54.1361C84.1791 55.6098 83.4773 56.4489 82.7961 56.6945C82.0323 57.0015 81.1241 56.6945 80.0094 55.7735L80.03 55.753ZM67.8098 103.299C66.9841 103.81 66.4062 104.445 66.0552 105.182C67.3557 105.591 68.2227 105.243 68.6355 104.158C68.9451 103.114 69.2548 102.439 69.5644 102.173C69.1103 102.439 68.5323 102.807 67.8098 103.299ZM53.1951 100.74C53.6699 100.474 53.9382 100.29 53.9589 100.229C54.0621 100.024 54.3098 99.7987 54.6813 99.5736C55.1355 99.3689 55.4451 99.0414 55.6103 98.6116C55.0942 98.8163 54.3924 99.1233 53.5047 99.5327C52.8442 99.9829 52.452 100.556 52.3281 101.272C52.2249 101.825 52.3901 102.091 52.8442 102.091H53.4635C53.7112 102.05 53.9176 101.948 54.124 101.723C54.2685 101.518 54.2066 101.375 53.9795 101.313C53.1745 101.17 52.9268 100.986 53.1951 100.761V100.74Z" fill="#272727"/>
<path d="M228.118 48.9988C248.037 55.1799 248.925 60.3377 251.897 83.036C252.785 89.9539 253.528 96.2988 255.324 101.17C255.923 102.644 259.927 104.997 266.182 108.989C267.379 109.725 268.267 110.605 268.267 112.079C268.267 113.839 266.492 114.74 264.551 114.74C260.836 114.74 256.232 113.717 251.32 113.717C247.893 113.717 246.118 114.453 242.691 114.453C238.521 114.453 235.26 113.573 234.971 109.296C232.741 80.1092 232.143 63.1622 211.79 53.2969C181.755 38.7037 164.828 29.5753 164.828 23.6807C164.828 21.1837 164.973 18.8095 167.202 17.4996C169.886 15.8827 185.182 16.3125 212.987 16.3125C236.333 16.3125 251.031 15.5756 251.031 26.4847C251.031 35.6132 245.086 40.6277 228.138 49.0397L228.118 48.9988ZM184.129 41.3236L203.017 50.452V97.752C203.017 99.8192 203.471 101.723 205.246 102.91C211.046 106.594 215.051 109.091 215.051 111.158C215.051 113.962 211.934 114.699 206.877 114.699C203.017 114.699 197.072 113.819 189.785 113.819C187.267 113.819 183.551 114.699 179.835 114.699C174.035 114.699 170.773 113.819 170.773 110.872C170.773 109.398 171.661 108.661 172.858 107.924C181.177 102.48 184.15 101.579 184.15 94.6614V41.3031L184.129 41.3236ZM184.129 29.9846C184.129 29.5344 184.273 29.1046 184.273 28.6543C184.273 26.3005 184.129 23.783 181.755 23.783C180.558 23.783 179.526 24.6631 179.526 25.707C179.526 30.2712 187.989 34.5489 207.764 43.2475C211.934 45.0077 215.485 45.1714 218.622 45.1714C223.225 45.1714 234.682 37.8032 234.682 30.4349C234.682 24.8269 227.994 23.3532 215.216 23.3532C207.331 23.3532 203.037 24.3766 203.037 28.3677V39.5634L184.15 29.9846H184.129Z" fill="#272727"/>
<path d="M284.884 55.7735C284.884 53.8496 283.852 52.0894 282.365 50.9023C280.735 49.5719 278.361 48.4052 278.361 46.7679C278.361 45.0077 279.703 44.1071 281.478 44.1071C284.595 44.1071 286.535 44.3937 289.652 44.3937C292.336 44.3937 295.886 44.1071 299.457 44.1071C306.889 44.1071 310.15 44.2504 310.15 46.7679C310.15 47.5047 310.15 48.2415 309.551 48.6918C304.804 52.6625 303.751 52.6625 303.751 60.6242V101.293C303.751 102.48 303.895 103.36 304.783 103.954C309.531 107.044 312.07 108.088 312.07 110.298C312.07 113.102 308.354 114.719 301.212 114.719C298.838 114.719 297.496 114.126 295.122 114.126C290.953 114.126 288.434 114.719 284.265 114.719C280.095 114.719 276.544 112.959 276.544 111.035C276.544 108.682 278.031 107.351 280.26 106.471C283.831 105.141 284.863 103.074 284.863 98.366V55.7735H284.884ZM293.801 22.1661C301.233 22.1661 305.547 24.6631 305.547 28.9408C305.547 32.6249 301.976 35.2857 294.689 35.2857C287.402 35.2857 283.253 32.1951 283.253 29.1046C283.253 24.2333 286.515 22.1866 293.801 22.1866V22.1661Z" fill="#272727"/>
<path d="M332.588 54.0133C332.588 53.7268 332.444 53.2765 332.134 53.1332C327.964 50.3292 325.59 48.7123 325.59 46.6451C325.59 44.8849 327.964 44.2913 330.792 44.2913C333.022 44.2913 332.733 43.6978 332.733 40.7505C332.733 39.5634 332.733 38.6833 331.845 38.0897C329.162 36.1658 327.675 35.736 327.675 33.9553C327.675 30.1279 334.074 31.7448 342.249 24.8269C346.109 21.593 348.792 19.0756 349.68 19.0756C350.877 19.0756 352.363 19.2188 352.363 20.5492C352.363 22.3094 351.62 23.3532 351.331 25.1134C350.877 28.511 351.042 30.5577 350.588 34.0986C350.444 35.8588 350.134 36.7593 350.134 38.5195C350.134 39.8499 350.279 40.73 351.022 41.7534C351.311 42.2037 351.476 42.4902 351.476 43.0837C351.476 43.9638 349.701 45.2942 348.792 46.031C349.391 46.031 349.824 46.1743 350.423 46.1743C352.941 46.1743 356.224 44.9872 358.597 44.9872C363.799 44.9872 367.804 45.724 367.804 49.5514C367.804 54.2589 365.574 55.8963 365.574 60.7471C365.574 61.9342 365.863 63.1008 367.061 63.5511C367.515 63.6944 367.948 64.0014 367.948 64.5744C367.948 65.5978 365.265 67.665 362.602 67.665C357.545 67.665 354.572 64.5744 354.139 59.1097C353.994 57.3495 354.283 55.139 352.797 55.139C351.765 55.139 351.455 55.4256 351.455 56.4694V99.942C351.455 102.603 352.487 103.626 358.143 106.717C359.485 107.454 360.084 108.334 360.084 109.807C360.084 113.205 355.914 114.515 348.792 114.515C345.675 114.515 344.045 114.228 340.907 114.228C336.902 114.228 333.331 114.678 331.535 114.678C327.077 114.678 323.96 112.018 323.96 110.401C323.96 105.243 332.588 105.243 332.588 101.109V53.9519V54.0133Z" fill="#272727"/>
<path d="M403.928 91.7346C403.928 96.2988 408.098 100.126 411.958 100.126C414.042 100.126 415.673 99.8397 417.903 98.7958C421.763 97.1789 425.189 96.2988 427.563 95.255V53.5425C427.563 52.2122 426.077 51.0455 424.88 50.3087C422.65 48.9783 420.276 47.955 420.276 46.338C420.276 45.0077 421.02 43.6773 422.361 43.6773H449.568C452.086 43.6773 454.027 44.5574 454.027 46.4813C454.027 47.6684 453.572 48.4052 452.54 48.9783C448.082 51.1888 446.451 51.1888 446.451 55.753V102.48C446.451 104.404 447.483 105.714 449.134 106.614C451.653 107.945 454.192 108.825 454.192 111.035C454.192 113.102 451.818 114.269 448.845 114.269C445.419 114.269 443.643 113.819 440.217 113.819C437.244 113.819 433.075 114.269 428.471 114.269C422.815 114.269 419.698 114.556 419.698 111.179C419.698 110.298 420.153 109.848 420.896 109.418C425.643 106.185 427.13 105.734 427.13 103.524C427.13 103.237 426.387 103.381 426.098 103.381C424.9 103.381 420.297 106.778 411.689 112.673C408.861 114.597 406.632 115.026 403.061 115.026C393.854 115.026 385.081 108.538 385.081 95.7257V52.3964C385.081 51.2093 383.74 50.0426 382.708 49.4491C380.478 48.262 377.96 47.3819 377.96 45.9082C377.96 44.4346 378.847 43.6978 380.334 43.6978H400.109C402.792 43.6978 403.969 44.4346 403.969 47.3819V91.7346H403.928Z" fill="#272727"/>
<path d="M496.529 43.9843C500.1 43.9843 504.559 43.841 509.306 43.841C516.284 43.841 522.538 44.7211 526.398 49.5924C528.339 51.9461 529.66 56.367 529.66 58.8845V100.597C529.66 102.357 532.034 104.281 535.605 106.492C536.492 107.085 537.091 107.822 537.091 108.845C537.091 111.506 532.178 114.74 525.655 114.74C519.855 114.74 512.878 113.553 505.137 113.553C497.85 113.553 491.616 114.74 487.157 114.74C470.066 114.74 461.004 106.921 461.004 95.1322C461.004 86.4336 467.403 77.8987 477.641 73.314C491.472 67.1329 495.187 66.2323 495.187 64.0218C495.187 63.285 494.444 62.9985 493.701 62.9985C491.616 62.9985 486.868 64.9224 480.325 64.9224C469.921 64.9224 463.976 59.6214 463.976 55.0571C463.976 45.9287 471.407 43.8615 484.928 43.8615C489.387 43.8615 492.07 44.0048 496.529 44.0048V43.9843ZM502.02 57.2471C505.88 57.2471 508.708 59.1711 508.708 61.5248C508.708 63.1417 508.708 64.7587 507.222 65.4955C490.873 73.1503 481.955 77.2847 481.955 87.3137C481.955 93.2083 487.446 97.6292 495.187 97.6292C501.132 97.6292 508.563 95.4187 511.825 92.758V61.0745C511.825 50.3087 503.506 50.1654 492.937 50.1654C485.506 50.1654 481.047 51.4958 481.047 54.5864C481.047 57.984 483.566 59.1506 488.767 59.1506C493.515 59.1506 498.283 57.2267 501.999 57.2267L502.02 57.2471Z" fill="#272727"/>
<path d="M554.038 28.511C554.038 27.7742 542.974 26.5871 542.375 26.3005C537.772 24.3766 535.687 23.4965 535.687 20.6925C535.687 15.985 551.499 17.0084 568.901 17.0084C571.419 17.0084 572.472 18.482 572.472 21.1428V101.027C572.472 102.05 573.215 103.237 574.102 103.688C578.85 106.348 580.791 107.515 580.791 109.725C580.791 113.123 576.621 114.597 569.355 114.597C567.125 114.597 565.928 114.146 563.699 114.146C559.839 114.146 556.412 114.74 554.492 114.74C548.258 114.74 545.43 112.386 545.43 110.605C545.43 109.725 545.43 108.845 546.173 108.395C551.231 105.161 553.46 102.787 553.46 100.576L554.059 28.511H554.038Z" fill="#272727"/>
<path d="M660.016 101.027C660.016 102.05 660.614 103.974 661.502 104.424C666.25 106.921 668.479 108.252 668.479 110.462C668.479 112.079 664.908 114.597 660.759 114.597C658.984 114.597 657.786 114.74 656.011 114.453C649.612 113.573 644.41 114.597 641.149 114.597C635.204 114.597 632.685 112.529 632.685 110.912C632.685 109.152 634.172 107.965 635.513 107.085C638.032 105.325 641.169 104.424 641.169 100.167V64.3493C641.169 59.6418 637.598 56.6945 632.995 56.6945C629.878 56.6945 626.018 59.3553 619.165 61.402C617.967 61.6885 617.08 61.2587 617.08 63.0189V101.047C617.08 101.927 617.369 103.401 618.277 103.995C622.591 106.655 625.564 108.702 625.564 110.483C625.564 112.55 622.447 114.76 619.02 114.76C616.646 114.76 615.304 114.904 612.931 114.617C605.954 113.88 600.587 114.76 597.47 114.76C592.412 114.76 589.295 113.287 589.295 111.22C589.295 108.722 590.637 107.822 592.557 106.512C595.983 104.302 597.759 103.851 597.759 100.167V53.8905C597.759 53.0104 597.47 52.2736 596.417 51.8233C592.701 50.2064 590.327 48.5895 590.327 46.5223C590.327 45.1919 592.412 44.1685 594.332 44.1685H621.972C623.314 44.1685 624.655 44.7621 624.655 46.2357C624.655 47.4228 621.827 49.4695 618.999 50.6567C617.967 51.1069 617.513 51.8438 617.513 53.0104C617.513 53.4607 617.369 54.1975 617.802 54.1975C619.743 54.1975 621.373 52.8671 622.55 51.8438C627.607 47.5661 632.665 42.5516 641.417 42.5516C650.623 42.5516 657.332 48.4462 658.653 53.604C658.798 54.1975 659.107 54.9343 659.685 54.9343C661.626 54.9343 666.972 51.8438 672.174 46.9725C674.403 44.9053 680.059 42.5516 684.662 42.5516C695.52 42.5516 702.952 50.2064 702.952 62.4458V101.068C702.952 103.278 705.036 104.895 709.929 107.413C710.961 108.006 711.27 109.173 711.27 110.36C711.27 112.12 707.699 114.494 703.385 114.494C699.071 114.494 695.211 113.757 693.126 113.757C691.351 113.757 687.47 114.494 682.124 114.494C678.862 114.494 675.724 112.427 675.724 111.097C675.724 109.173 675.724 108.293 678.098 106.819C681.36 104.752 684.043 104.015 684.043 100.188V64.3698C684.043 60.5424 680.782 56.715 676.901 56.715C673.02 56.715 669.759 58.9255 667.385 59.9488C660.408 62.7529 659.954 61.2792 659.954 63.0394V101.068L660.016 101.027Z" fill="#272727"/>
<path d="M753.05 43.9843C756.621 43.9843 761.08 43.841 765.828 43.841C772.805 43.841 779.06 44.7211 782.92 49.5924C784.86 51.9461 786.181 56.367 786.181 58.8845V100.597C786.181 102.357 788.555 104.281 792.126 106.492C793.014 107.085 793.612 107.822 793.612 108.845C793.612 111.506 788.7 114.74 782.177 114.74C776.376 114.74 769.399 113.553 761.658 113.553C754.371 113.553 748.137 114.74 743.679 114.74C726.587 114.74 717.525 106.921 717.525 95.1322C717.525 86.4336 723.924 77.8987 734.163 73.314C747.993 67.1329 751.709 66.2323 751.709 64.0218C751.709 63.285 750.965 62.9985 750.222 62.9985C748.137 62.9985 743.39 64.9224 736.846 64.9224C726.442 64.9224 720.498 59.6214 720.498 55.0571C720.498 45.9287 727.929 43.8615 741.449 43.8615C745.908 43.8615 748.592 44.0048 753.05 44.0048V43.9843ZM758.541 57.2471C762.401 57.2471 765.229 59.1711 765.229 61.5248C765.229 63.1417 765.229 64.7587 763.743 65.4955C747.394 73.1503 738.477 77.2847 738.477 87.3137C738.477 93.2083 743.968 97.6292 751.709 97.6292C757.654 97.6292 765.085 95.4187 768.346 92.758V61.0745C768.346 50.3087 760.027 50.1654 749.479 50.1654C742.048 50.1654 737.589 51.4958 737.589 54.5864C737.589 57.984 740.108 59.1506 745.309 59.1506C750.057 59.1506 754.826 57.2267 758.541 57.2267V57.2471Z" fill="#272727"/>
<path d="M844.743 70.9602C844.145 70.9602 843.546 71.1035 843.546 71.6971C843.546 72.1474 843.691 72.4339 844.145 72.5772C855.436 76.4046 863.466 78.3285 867.78 82.6062C870.897 85.6967 873.87 92.7784 874.014 99.8397C874.014 103.381 875.356 104.711 881.445 107.494C882.477 107.945 883.076 108.825 883.076 109.848C883.076 113.082 879.959 114.412 875.046 114.412C873.106 114.412 872.074 114.126 870.133 114.126C866.562 114.126 864.642 114.412 861.071 114.412C856.902 114.412 854.094 112.795 853.64 106.758C852.608 92.3077 850.379 83.7728 846.663 81.5623C835.805 75.2175 831.656 73.4573 831.656 69.4866C831.656 66.6826 833.431 64.6154 836.115 64.6154C841.606 64.6154 845.92 65.9458 848.294 65.9458C853.207 65.9458 856.778 62.9985 856.778 59.3143C856.778 56.2238 853.062 52.9695 849.037 52.9695C841.606 52.9695 838.035 55.6302 835.805 56.6536C833.576 57.677 830.603 58.7208 827.775 60.3377V101.6C827.775 103.074 828.973 103.81 829.86 104.404C833.431 106.471 836.548 107.801 836.548 110.442C836.548 115.6 826.434 114.269 819.746 114.269C816.03 114.269 813.945 114.719 810.229 114.719C804.739 114.719 800.858 113.103 800.858 110.892C800.858 109.869 801.147 109.275 802.055 108.682C806.06 105.878 809.486 104.854 809.486 100.863V28.9408C809.486 27.0169 807.856 25.8502 802.509 23.0462C801.766 22.5959 801.622 21.7158 801.622 20.8357C801.622 17.4382 803.995 16.8651 809.053 16.8651C813.367 16.8651 815.741 17.1516 820.055 17.1516C824.369 17.1516 833.08 17.0084 837.539 17.0084C840.512 17.0084 842.452 18.0317 842.452 20.4059C842.452 22.4731 840.966 24.0901 838.736 24.5403C835.31 25.2772 827.796 27.3444 827.796 30.8852V49.7561C827.796 50.2064 827.651 50.4929 827.342 50.7795C827.032 51.066 826.599 51.373 826.599 51.8028C826.599 52.2326 827.486 51.9461 827.94 51.8028C831.202 50.4724 834.629 48.8555 837.601 46.9316C842.204 44.1276 845.631 43.6978 850.977 43.6978C865.984 43.6978 874.613 50.0426 874.613 57.6974C874.613 65.3522 865.984 71.4105 853.207 71.4105C849.945 71.4105 848.005 70.9602 844.743 70.9602Z" fill="#272727"/>
<path d="M949.069 85.84C952.331 85.84 957.553 89.6674 957.553 95.562C957.553 102.48 954.87 107.801 949.379 111.179C942.237 115.743 934.661 114.126 926.342 114.126C922.915 114.126 921.14 114.412 917.714 114.412C900.168 114.412 889.475 99.5327 889.475 83.7523C889.475 73.5801 890.507 64.8815 896.308 56.0396C903.285 45.4375 912.945 43.6568 929.315 43.6568C945.684 43.6568 955.778 43.8001 955.778 52.3554C955.778 58.8436 949.977 65.3317 939.718 71.0831C931.833 75.504 923.803 78.308 919.055 84.6324C916.537 87.8663 915.051 91.4071 915.051 92.144C915.051 92.7375 919.365 95.8281 931.255 95.8281C943.145 95.8281 948.656 91.2639 948.945 86.9862C948.945 86.5359 948.656 85.7991 949.09 85.7991L949.069 85.84ZM908.652 87.1704C909.539 87.1704 909.395 85.84 909.684 84.9599C911.315 79.5156 918.89 73.4573 931.09 66.5393C935.404 64.0423 937.922 61.8318 937.922 57.984C937.922 53.563 933.464 49.8789 926.487 49.8789C920.253 49.8789 915.629 50.1654 911.025 54.5864C907.31 58.2705 904.626 64.7587 904.626 70.0597C904.626 82.4424 907.599 87.1499 908.631 87.1499L908.652 87.1704Z" fill="#272727"/>
<path d="M974.191 56.6536C974.191 54.2998 973.159 52.5192 971.363 51.0455C969.588 49.5719 967.193 48.2415 967.193 45.8878C967.193 43.8206 970.31 43.8206 974.624 43.8206C978.34 43.8206 980.28 44.1071 983.996 44.1071C988.455 44.2504 990.829 43.8206 995.287 43.8206C997.517 43.8206 999.003 44.5574 999.003 46.6246C999.003 47.648 998.404 48.5485 997.372 48.8351C994.111 49.8584 992.17 52.3759 992.17 54.2794C992.17 55.3027 993.368 55.0162 993.946 55.0162C995.143 55.0162 995.886 54.4226 996.774 53.5425C1002.86 47.5047 1007.03 43.6773 1010.89 43.6773C1019.95 43.6773 1024.56 50.5953 1024.56 58.8641C1024.56 66.6826 1021.87 71.5333 1015.04 75.0742C1012.21 76.5478 1009.39 77.5712 1009.39 78.7583C1009.39 80.232 1008.64 80.0887 1007.76 80.0887C1006.41 80.0887 1004.18 77.1414 1004.18 74.4806C1004.18 71.5333 1007.45 68.2995 1007.45 65.6387C1007.45 62.2412 1005.36 60.1944 1001.79 60.1944C1001.79 60.1944 995.7 61.6681 991.985 63.285V99.8397C991.985 102.93 993.471 104.261 995.556 105.448C998.074 106.921 1000.76 107.515 1000.76 110.462C1000.76 113.41 996.443 114.74 988.868 114.74C986.494 114.74 985.297 114.29 982.923 114.29C979.352 114.29 977.267 114.74 973.716 114.74C969.113 114.74 965.542 112.98 965.542 111.199C965.542 108.845 967.771 107.228 970.599 105.755C974.026 103.995 974.17 101.927 974.17 97.0561V56.6741L974.191 56.6536Z" fill="#272727"/>
<path d="M1102.85 45.1714C1098.11 48.8555 1096.17 51.8028 1096.17 57.8407C1096.17 61.5248 1098.85 64.4721 1102.85 67.5627V95.869C1102.85 101.17 1105.08 101.62 1115.49 106.328C1116.52 106.778 1117.12 107.801 1117.12 108.989C1117.12 111.199 1111.92 114.883 1105.37 114.883C1100.77 114.883 1096.31 113.696 1093.03 113.696C1089.46 113.696 1085.14 114.719 1081.28 114.719C1075.94 114.719 1071.77 112.222 1071.77 110.442C1071.77 108.088 1072.8 107.351 1074.74 106.164C1079.94 102.93 1083.95 101.6 1083.95 97.0356V32.9319C1083.95 31.1718 1083.49 30.4349 1081.57 29.5344C1075.92 26.8736 1071.77 24.8269 1071.77 21.8796C1071.77 17.4586 1078.31 17.7452 1091.38 17.0084C1097.32 16.7218 1100.58 16.7218 1106.53 16.7218C1134.91 16.7218 1148.45 16.8651 1148.45 22.7597C1148.45 23.9468 1148.45 24.6836 1148 25.707C1146.06 29.8414 1132.99 36.7593 1110.7 48.8555C1109.81 49.3058 1109.07 49.8789 1109.07 50.9227C1109.07 51.9666 1109.36 52.2531 1109.95 52.2531C1110.55 52.2531 1111.59 51.8028 1112.93 51.2298C1115.3 50.2064 1118.87 48.569 1123.33 48.569C1132.25 48.569 1136.85 52.8467 1136.85 58.1477C1136.85 61.9751 1135.65 65.2294 1134.91 65.2294C1134.46 65.2294 1134.02 65.2294 1133.71 64.9429C1132.52 64.0628 1131.2 62.2821 1128.97 62.2821C1124.22 62.2821 1115.14 67.4399 1109.65 67.4399C1103.1 67.4399 1097.76 63.0189 1097.76 58.4547C1097.76 53.8905 1098.5 49.8994 1106.38 44.3118C1120.65 34.1395 1127.05 30.0256 1127.05 26.7713C1127.05 24.7041 1123.04 22.9439 1117.1 22.9439C1108.04 22.9439 1102.83 23.3942 1102.83 27.9584V45.1919L1102.85 45.1714Z" fill="#272727"/>
<path d="M1166.47 28.511C1166.47 27.7742 1159.54 26.5871 1158.94 26.3005C1154.34 24.3766 1152.25 23.4965 1152.25 20.6925C1152.25 15.985 1163.93 17.0084 1181.34 17.0084C1183.85 17.0084 1184.91 18.482 1184.91 21.1428V101.027C1184.91 102.05 1185.65 103.237 1186.54 103.688C1191.29 106.348 1193.23 107.515 1193.23 109.725C1193.23 113.123 1189.06 114.597 1181.79 114.597C1179.56 114.597 1178.36 114.146 1176.13 114.146C1172.27 114.146 1168.85 114.74 1166.93 114.74C1160.69 114.74 1157.87 112.386 1157.87 110.605C1157.87 109.725 1157.87 108.845 1158.61 108.395C1163.67 105.161 1165.9 102.787 1165.9 100.576L1166.49 28.511H1166.47Z" fill="#272727"/>
<path d="M1235.73 43.6773C1258.62 43.6773 1269.91 55.1799 1269.91 79.4951C1269.91 98.7958 1258.62 113.246 1245.82 114.719C1244.19 114.863 1243.3 114.719 1241.65 114.719C1239.71 114.719 1238.68 114.433 1236.74 114.433C1231.54 114.29 1225.14 116.05 1217.42 111.486C1208.05 105.878 1203.01 94.6819 1203.01 78.922C1203.01 57.2676 1215.19 43.6978 1235.71 43.6978L1235.73 43.6773ZM1236.78 50.759C1224.89 50.759 1218.2 58.4138 1218.2 70.7965C1218.2 84.9394 1224.75 92.758 1236.04 92.758C1248.22 92.758 1254.76 84.9394 1254.76 72.5772C1254.76 58.4342 1246.3 50.759 1236.78 50.759Z" fill="#272727"/>
<path d="M1325.65 85.3897L1316.27 113.246C1315.82 114.719 1315.08 115.6 1313.3 115.6C1312.7 115.6 1309.73 115.456 1305.58 115.456C1304.38 115.456 1303.5 114.269 1303.06 113.246L1280.91 56.9401C1279.28 52.9695 1276.91 50.759 1272.6 47.5047C1271.85 46.9111 1271.85 46.3176 1271.85 45.4375C1271.85 43.8206 1273.63 42.9405 1275.71 42.9405H1301.12C1303.21 42.9405 1304.69 44.2708 1304.69 46.1743C1304.69 47.3614 1304.24 48.0982 1303.21 48.6713C1301.12 49.8584 1300.52 51.4754 1300.52 53.6858C1300.52 54.7092 1300.67 55.3027 1301.12 56.3466L1314.05 90.3838L1327.28 55.3027C1327.73 53.9724 1329.05 53.2355 1330.39 53.2355C1332.17 53.2355 1333.08 54.1156 1333.66 55.7326L1346.29 91.5504C1352.83 79.3109 1356.98 61.1973 1356.98 55.5893C1356.98 49.6947 1349.84 49.1011 1339 49.1011C1326.51 49.1011 1319.68 49.1011 1319.68 50.1245C1319.68 52.9285 1320.71 54.5455 1320.71 54.6887C1320.71 58.8231 1317.45 61.4634 1313.57 61.4634C1311.94 61.4634 1308.66 59.3962 1308.66 57.329C1308.66 56.5922 1309.4 56.4489 1310 55.8554C1310.45 55.4051 1310.29 55.1185 1310.29 54.525C1310.29 53.5016 1308.35 50.2473 1308.35 48.3439C1308.35 44.2094 1311.03 42.8995 1316.23 42.8995H1364.99C1367.36 42.8995 1370.05 44.0866 1370.05 46.1334C1370.05 48.9374 1369.59 52.028 1368.56 54.832L1347.16 113.184C1346.7 114.208 1345.52 115.538 1344.47 115.538C1344.02 115.538 1341.79 115.395 1339.41 115.395C1337.93 115.395 1336.59 114.658 1335.99 113.184L1325.58 85.3283L1325.65 85.3897Z" fill="#272727"/>
<path d="M1437.42 85.84C1440.69 85.84 1445.89 89.6674 1445.89 95.562C1445.89 102.48 1443.2 107.801 1437.71 111.179C1430.57 115.743 1422.99 114.126 1414.68 114.126C1411.25 114.126 1409.47 114.412 1406.05 114.412C1388.5 114.412 1377.81 99.5327 1377.81 83.7523C1377.81 73.5801 1378.84 64.8815 1384.64 56.0396C1391.62 45.4375 1401.28 43.6568 1417.65 43.6568C1434.02 43.6568 1444.11 43.8001 1444.11 52.3554C1444.11 58.8436 1438.31 65.3317 1428.05 71.0831C1420.17 75.504 1412.16 78.308 1407.39 84.6324C1404.87 87.8663 1403.38 91.4071 1403.38 92.144C1403.38 92.7375 1407.7 95.8281 1419.59 95.8281C1431.48 95.8281 1436.97 91.2639 1437.28 86.9862C1437.28 86.5359 1436.99 85.7991 1437.42 85.7991V85.84ZM1396.99 87.1704C1397.87 87.1704 1397.73 85.84 1398.02 84.9599C1399.65 79.5156 1407.22 73.4573 1419.42 66.5393C1423.74 64.0423 1426.26 61.8318 1426.26 57.984C1426.26 53.563 1421.8 49.8789 1414.82 49.8789C1408.59 49.8789 1403.96 50.1654 1399.36 54.5864C1395.64 58.2705 1392.96 64.7587 1392.96 70.0597C1392.96 82.4424 1395.93 87.1499 1396.97 87.1499L1396.99 87.1704Z" fill="#272727"/>
<path d="M1462.52 56.6536C1462.52 54.2998 1461.49 52.5192 1459.7 51.0455C1457.92 49.5719 1455.53 48.2415 1455.53 45.8878C1455.53 43.8206 1458.64 43.8206 1462.96 43.8206C1466.67 43.8206 1468.61 44.1071 1472.33 44.1071C1476.79 44.2504 1479.16 43.8206 1483.62 43.8206C1485.85 43.8206 1487.34 44.5574 1487.34 46.6246C1487.34 47.648 1486.74 48.5485 1485.71 48.8351C1482.44 49.8584 1480.5 52.3759 1480.5 54.2794C1480.5 55.3027 1481.7 55.0162 1482.28 55.0162C1483.48 55.0162 1484.22 54.4226 1485.11 53.5425C1491.2 47.5047 1495.37 43.6773 1499.23 43.6773C1508.29 43.6773 1512.89 50.5953 1512.89 58.8641C1512.89 66.6826 1510.21 71.5333 1503.38 75.0742C1500.55 76.5478 1497.72 77.5712 1497.72 78.7583C1497.72 80.232 1496.98 80.0887 1496.09 80.0887C1494.75 80.0887 1492.52 77.1414 1492.52 74.4806C1492.52 71.5333 1495.78 68.2995 1495.78 65.6387C1495.78 62.2412 1493.69 60.1944 1490.12 60.1944C1490.12 60.1944 1484.03 61.6681 1480.32 63.285V99.8397C1480.32 102.93 1481.8 104.261 1483.89 105.448C1486.41 106.921 1489.09 107.515 1489.09 110.462C1489.09 113.41 1484.78 114.74 1477.2 114.74C1474.83 114.74 1473.63 114.29 1471.26 114.29C1467.69 114.29 1465.6 114.74 1462.05 114.74C1457.45 114.74 1453.88 112.98 1453.88 111.199C1453.88 108.845 1456.11 107.228 1458.93 105.755C1462.36 103.995 1462.5 101.927 1462.5 97.0561V56.6741L1462.52 56.6536Z" fill="#272727"/>
<path d="M1585.45 54.5864C1585.45 55.1799 1581.88 57.5337 1578.16 57.5337C1574.9 57.5337 1572.36 56.6536 1570.88 54.1361C1569.84 52.2122 1570.13 50.5953 1560.18 50.5953C1550.23 50.5953 1545.47 51.1888 1545.47 53.5426C1545.47 57.2267 1550.52 60.3172 1559.44 63.1213C1565.1 64.8815 1568.5 65.782 1573.7 68.5656C1583.96 74.0099 1589.02 82.5652 1589.02 94.2111C1589.02 107.617 1581.44 114.842 1567.47 114.842C1562.12 114.842 1557.07 113.655 1552.9 113.655C1547.98 113.655 1542.64 114.678 1537.58 114.678C1526.43 114.678 1519.29 107.31 1519.29 101.129C1519.29 92.2872 1525.53 89.6265 1525.53 85.2055C1525.53 82.9951 1524.93 81.2349 1524.93 81.2349C1524.93 80.9483 1527.3 80.6413 1528.5 80.6413C1535.47 80.6413 1539.93 83.5886 1540.7 88.0095C1541.15 90.5066 1540.24 93.1673 1544.7 95.3778C1547.39 96.7082 1549.02 97.3017 1551.99 97.3017C1562.39 97.3017 1568.05 94.3544 1568.05 89.0534C1568.05 83.3021 1562.25 79.0244 1551.84 74.4602C1533.86 66.6417 1522.72 61.7909 1522.72 52.8057C1522.72 49.4082 1527.03 45.8878 1533.72 44.8439C1539.95 43.8206 1551.41 43.9638 1567.61 43.9638C1590.51 43.9638 1583.67 50.3087 1585.16 53.6858C1585.31 53.9724 1585.45 54.2794 1585.45 54.5659V54.5864Z" fill="#272727"/>
</g>
<defs>
<clipPath id="clip0_11_2">
<rect width="1589" height="120" fill="white"/>
</clipPath>
</defs>
</svg>
